<svg width="157" height="276" viewBox="0 0 157 276" fill="none" xmlns="http://www.w3.org/2000/svg">
<g filter="url(#filter0_f_356_289)">
<mask id="path-1-outside-1_356_289" maskUnits="userSpaceOnUse" x="6" y="59" width="145" height="204" fill="black">
<rect fill="white" x="6" y="59" width="145" height="204"/>
<path d="M87.0887 66.3C93.0887 64.3 99.2887 63.3 105.689 63.3C112.089 63.3 120.489 63.7 130.889 64.5C128.089 86.7 126.689 110.7 126.689 136.5C126.689 162.3 126.789 178.4 126.989 184.8C136.989 184 142.989 183.3 144.989 182.7C145.789 185.9 146.189 189.9 146.189 194.7C146.189 199.5 145.389 204.3 143.789 209.1C136.589 208.3 131.189 207.8 127.589 207.6C127.989 220.8 128.589 231.8 129.389 240.6L140.189 241.5C140.589 244.7 140.789 247.5 140.789 249.9C140.789 252.1 140.489 254.9 139.889 258.3C132.889 258.1 124.789 258 115.589 258C106.389 258 98.3887 258.1 91.5887 258.3C90.9887 255.3 90.6887 252.7 90.6887 250.5C90.6887 248.1 90.8887 245.1 91.2887 241.5L101.789 240.6C102.589 230 103.189 218.7 103.589 206.7C97.3887 206.5 83.0887 206.4 60.6887 206.4C38.4887 206.4 22.1887 207 11.7887 208.2C11.1887 206.4 10.8887 202.8 10.8887 197.4C13.8887 192.8 18.7887 185 25.5887 174C32.5887 162.8 37.4887 155 40.2887 150.6C43.0887 146.2 47.1887 139.6 52.5887 130.8C57.9887 121.8 62.2887 114.5 65.4887 108.9C73.8887 93.5 81.0887 79.3 87.0887 66.3ZM43.8887 186.6C51.2887 186.8 59.8887 186.9 69.6887 186.9C79.4887 186.9 90.9887 186.7 104.189 186.3V165.9C104.189 126.5 103.389 99.3 101.789 84.3C87.1887 104.7 67.8887 138.8 43.8887 186.6Z"/>
</mask>
<path d="M87.0887 66.3L85.8238 62.5052L84.182 63.0525L83.4568 64.6237L87.0887 66.3ZM130.889 64.5L134.857 65.0005L135.383 60.8339L131.195 60.5118L130.889 64.5ZM126.989 184.8L122.991 184.925L123.122 189.122L127.308 188.787L126.989 184.8ZM144.989 182.7L148.869 181.73L147.853 177.665L143.839 178.869L144.989 182.7ZM143.789 209.1L143.347 213.076L146.561 213.433L147.583 210.365L143.789 209.1ZM127.589 207.6L127.811 203.606L123.458 203.364L123.591 207.721L127.589 207.6ZM129.389 240.6L125.405 240.962L125.709 244.307L129.056 244.586L129.389 240.6ZM140.189 241.5L144.158 241.004L143.755 237.783L140.521 237.514L140.189 241.5ZM139.889 258.3L139.774 262.298L143.227 262.397L143.828 258.995L139.889 258.3ZM91.5887 258.3L87.6664 259.084L88.329 262.398L91.7063 262.298L91.5887 258.3ZM91.2887 241.5L90.9471 237.515L87.6757 237.795L87.3131 241.058L91.2887 241.5ZM101.789 240.6L102.13 244.585L105.521 244.295L105.777 240.901L101.789 240.6ZM103.589 206.7L107.586 206.833L107.72 202.831L103.718 202.702L103.589 206.7ZM11.7887 208.2L7.99394 209.465L9.02093 212.546L12.2472 212.174L11.7887 208.2ZM10.8887 197.4L7.53823 195.215L6.88867 196.211V197.4H10.8887ZM25.5887 174L22.1967 171.88L22.1915 171.888L22.1863 171.897L25.5887 174ZM40.2887 150.6L43.6633 152.747H43.6633L40.2887 150.6ZM52.5887 130.8L55.998 132.892L56.0084 132.875L56.0186 132.858L52.5887 130.8ZM65.4887 108.9L68.9616 110.885L68.9813 110.85L69.0003 110.815L65.4887 108.9ZM43.8887 186.6L40.314 184.805L37.4905 190.429L43.7806 190.599L43.8887 186.6ZM104.189 186.3L104.31 190.298L108.189 190.181V186.3H104.189ZM101.789 84.3L105.766 83.8757L104.652 73.4268L98.5359 81.972L101.789 84.3ZM88.3536 70.0947C93.9408 68.2323 99.7134 67.3 105.689 67.3V59.3C98.864 59.3 92.2365 60.3677 85.8238 62.5052L88.3536 70.0947ZM105.689 67.3C111.943 67.3 120.229 67.6918 130.582 68.4882L131.195 60.5118C120.748 59.7081 112.234 59.3 105.689 59.3V67.3ZM126.92 63.9995C124.096 86.3883 122.689 110.557 122.689 136.5H130.689C130.689 110.843 132.081 87.0117 134.857 65.0005L126.92 63.9995ZM122.689 136.5C122.689 162.276 122.788 178.448 122.991 184.925L130.987 184.675C130.789 178.352 130.689 162.324 130.689 136.5H122.689ZM127.308 188.787C132.329 188.386 136.383 188.006 139.452 187.648C142.402 187.304 144.748 186.948 146.138 186.531L143.839 178.869C143.229 179.052 141.575 179.346 138.525 179.702C135.594 180.044 131.648 180.414 126.67 180.813L127.308 188.787ZM141.108 183.67C141.802 186.445 142.189 190.093 142.189 194.7H150.189C150.189 189.707 149.776 185.355 148.869 181.73L141.108 183.67ZM142.189 194.7C142.189 199.047 141.465 203.421 139.994 207.835L147.583 210.365C149.312 205.179 150.189 199.953 150.189 194.7H142.189ZM144.23 205.124C137.015 204.323 131.525 203.813 127.811 203.606L127.367 211.594C130.852 211.787 136.163 212.277 143.347 213.076L144.23 205.124ZM123.591 207.721C123.992 220.967 124.595 232.053 125.405 240.962L133.372 240.238C132.582 231.547 131.985 220.633 131.587 207.479L123.591 207.721ZM129.056 244.586L139.856 245.486L140.521 237.514L129.721 236.614L129.056 244.586ZM136.22 241.996C136.605 245.084 136.789 247.711 136.789 249.9H144.789C144.789 247.289 144.572 244.316 144.158 241.004L136.22 241.996ZM136.789 249.9C136.789 251.775 136.529 254.321 135.95 257.605L143.828 258.995C144.448 255.479 144.789 252.425 144.789 249.9H136.789ZM140.003 254.302C132.955 254.1 124.816 254 115.589 254V262C124.762 262 132.822 262.1 139.774 262.298L140.003 254.302ZM115.589 254C106.362 254 98.3211 254.1 91.4711 254.302L91.7063 262.298C98.4562 262.1 106.415 262 115.589 262V254ZM95.511 257.516C94.9443 254.682 94.6887 252.357 94.6887 250.5H86.6887C86.6887 253.043 87.0331 255.918 87.6664 259.084L95.511 257.516ZM94.6887 250.5C94.6887 248.302 94.8732 245.461 95.2642 241.942L87.3131 241.058C86.9041 244.739 86.6887 247.898 86.6887 250.5H94.6887ZM91.6303 245.485L102.13 244.585L101.447 236.615L90.9471 237.515L91.6303 245.485ZM105.777 240.901C106.582 230.239 107.185 218.882 107.586 206.833L99.5909 206.567C99.1925 218.518 98.5953 229.761 97.8 240.299L105.777 240.901ZM103.718 202.702C97.4398 202.5 83.0692 202.4 60.6887 202.4V210.4C83.1082 210.4 97.3376 210.5 103.46 210.698L103.718 202.702ZM60.6887 202.4C38.4655 202.4 21.9723 202.998 11.3302 204.226L12.2472 212.174C22.4051 211.002 38.5118 210.4 60.6887 210.4V202.4ZM15.5834 206.935C15.2202 205.846 14.8887 202.89 14.8887 197.4H6.88867C6.88867 202.71 7.15709 206.954 7.99394 209.465L15.5834 206.935ZM14.2391 199.585C17.2681 194.941 22.1906 187.104 28.9911 176.103L22.1863 171.897C15.3868 182.896 10.5092 190.659 7.53823 195.215L14.2391 199.585ZM28.9807 176.12C35.981 164.919 40.8731 157.132 43.6633 152.747L36.914 148.452C34.1043 152.868 29.1964 160.681 22.1967 171.88L28.9807 176.12ZM43.6633 152.747C46.4814 148.319 50.5953 141.696 55.998 132.892L49.1794 128.708C43.7821 137.504 39.6959 144.081 36.914 148.452L43.6633 152.747ZM56.0186 132.858C61.4254 123.847 65.7417 116.52 68.9616 110.885L62.0157 106.915C58.8357 112.48 54.5519 119.753 49.1587 128.742L56.0186 132.858ZM69.0003 110.815C77.4339 95.3537 84.6759 81.0729 90.7205 67.9762L83.4568 64.6237C77.5014 77.5271 70.3434 91.6463 61.9771 106.985L69.0003 110.815ZM43.7806 190.599C51.226 190.8 59.8634 190.9 69.6887 190.9V182.9C59.914 182.9 51.3514 182.8 43.9967 182.601L43.7806 190.599ZM69.6887 190.9C79.5401 190.9 91.0823 190.699 104.31 190.298L104.068 182.302C90.8951 182.701 79.4372 182.9 69.6887 182.9V190.9ZM108.189 186.3V165.9H100.189V186.3H108.189ZM108.189 165.9C108.189 126.513 107.392 99.1145 105.766 83.8757L97.8112 84.7242C99.3858 99.4854 100.189 126.487 100.189 165.9H108.189ZM98.5359 81.972C83.7429 102.642 64.3273 136.979 40.314 184.805L47.4634 188.395C71.4501 140.621 90.6344 106.758 105.041 86.628L98.5359 81.972Z" fill="url(#paint0_radial_356_289)" mask="url(#path-1-outside-1_356_289)"/>
</g>
<mask id="path-3-outside-2_356_289" maskUnits="userSpaceOnUse" x="8" y="61" width="141" height="200" fill="black">
<rect fill="white" x="8" y="61" width="141" height="200"/>
<path d="M87.0887 66.3C93.0887 64.3 99.2887 63.3 105.689 63.3C112.089 63.3 120.489 63.7 130.889 64.5C128.089 86.7 126.689 110.7 126.689 136.5C126.689 162.3 126.789 178.4 126.989 184.8C136.989 184 142.989 183.3 144.989 182.7C145.789 185.9 146.189 189.9 146.189 194.7C146.189 199.5 145.389 204.3 143.789 209.1C136.589 208.3 131.189 207.8 127.589 207.6C127.989 220.8 128.589 231.8 129.389 240.6L140.189 241.5C140.589 244.7 140.789 247.5 140.789 249.9C140.789 252.1 140.489 254.9 139.889 258.3C132.889 258.1 124.789 258 115.589 258C106.389 258 98.3887 258.1 91.5887 258.3C90.9887 255.3 90.6887 252.7 90.6887 250.5C90.6887 248.1 90.8887 245.1 91.2887 241.5L101.789 240.6C102.589 230 103.189 218.7 103.589 206.7C97.3887 206.5 83.0887 206.4 60.6887 206.4C38.4887 206.4 22.1887 207 11.7887 208.2C11.1887 206.4 10.8887 202.8 10.8887 197.4C13.8887 192.8 18.7887 185 25.5887 174C32.5887 162.8 37.4887 155 40.2887 150.6C43.0887 146.2 47.1887 139.6 52.5887 130.8C57.9887 121.8 62.2887 114.5 65.4887 108.9C73.8887 93.5 81.0887 79.3 87.0887 66.3ZM43.8887 186.6C51.2887 186.8 59.8887 186.9 69.6887 186.9C79.4887 186.9 90.9887 186.7 104.189 186.3V165.9C104.189 126.5 103.389 99.3 101.789 84.3C87.1887 104.7 67.8887 138.8 43.8887 186.6Z"/>
</mask>
<path d="M87.0887 66.3L86.4562 64.4026L85.6354 64.6762L85.2728 65.4619L87.0887 66.3ZM130.889 64.5L132.873 64.7503L133.136 62.6669L131.042 62.5059L130.889 64.5ZM126.989 184.8L124.99 184.862L125.055 186.961L127.148 186.794L126.989 184.8ZM144.989 182.7L146.929 182.215L146.421 180.182L144.414 180.784L144.989 182.7ZM143.789 209.1L143.568 211.088L145.175 211.266L145.686 209.732L143.789 209.1ZM127.589 207.6L127.7 205.603L125.524 205.482L125.59 207.661L127.589 207.6ZM129.389 240.6L127.397 240.781L127.549 242.454L129.223 242.593L129.389 240.6ZM140.189 241.5L142.173 241.252L141.972 239.642L140.355 239.507L140.189 241.5ZM139.889 258.3L139.832 260.299L141.558 260.349L141.858 258.648L139.889 258.3ZM91.5887 258.3L89.6275 258.692L89.9588 260.349L91.6475 260.299L91.5887 258.3ZM91.2887 241.5L91.1179 239.507L89.4822 239.648L89.3009 241.279L91.2887 241.5ZM101.789 240.6L101.959 242.593L103.655 242.447L103.783 240.751L101.789 240.6ZM103.589 206.7L105.588 206.767L105.654 204.766L103.653 204.701L103.589 206.7ZM11.7887 208.2L9.89131 208.832L10.4048 210.373L12.0179 210.187L11.7887 208.2ZM10.8887 197.4L9.21345 196.307L8.88867 196.805V197.4H10.8887ZM25.5887 174L23.8927 172.94L23.8875 172.948L25.5887 174ZM40.2887 150.6L41.976 151.674H41.976L40.2887 150.6ZM52.5887 130.8L54.2933 131.846L54.2985 131.838L54.3037 131.829L52.5887 130.8ZM65.4887 108.9L67.2252 109.892L67.235 109.875L67.2445 109.858L65.4887 108.9ZM43.8887 186.6L42.1013 185.703L40.6896 188.514L43.8346 188.599L43.8887 186.6ZM104.189 186.3L104.249 188.299L106.189 188.24V186.3H104.189ZM101.789 84.3L103.777 84.0879L103.22 78.8634L100.162 83.136L101.789 84.3ZM87.7211 68.1973C93.5147 66.2662 99.501 65.3 105.689 65.3V61.3C99.0763 61.3 92.6626 62.3338 86.4562 64.4026L87.7211 68.1973ZM105.689 65.3C112.016 65.3 120.359 65.6959 130.735 66.4941L131.042 62.5059C120.618 61.7041 112.161 61.3 105.689 61.3V65.3ZM128.904 64.2497C126.092 86.5441 124.689 110.629 124.689 136.5H128.689C128.689 110.771 130.085 86.8558 132.873 64.7503L128.904 64.2497ZM124.689 136.5C124.689 162.288 124.788 178.424 124.99 184.862L128.988 184.738C128.789 178.376 128.689 162.312 128.689 136.5H124.689ZM127.148 186.794C132.159 186.393 136.186 186.016 139.22 185.662C142.195 185.314 144.368 184.974 145.563 184.616L144.414 180.784C143.609 181.026 141.782 181.336 138.757 181.688C135.791 182.034 131.819 182.407 126.829 182.806L127.148 186.794ZM143.048 183.185C143.795 186.172 144.189 189.997 144.189 194.7H148.189C148.189 189.803 147.782 185.628 146.929 182.215L143.048 183.185ZM144.189 194.7C144.189 199.274 143.427 203.86 141.891 208.468L145.686 209.732C147.35 204.74 148.189 199.726 148.189 194.7H144.189ZM144.01 207.112C136.802 206.311 131.357 205.806 127.7 205.603L127.478 209.597C131.021 209.794 136.376 210.289 143.568 211.088L144.01 207.112ZM125.59 207.661C125.99 220.883 126.592 231.927 127.397 240.781L131.38 240.419C130.585 231.673 129.987 220.717 129.588 207.539L125.59 207.661ZM129.223 242.593L140.023 243.493L140.355 239.507L129.555 238.607L129.223 242.593ZM138.204 241.748C138.597 244.892 138.789 247.606 138.789 249.9H142.789C142.789 247.394 142.58 244.508 142.173 241.252L138.204 241.748ZM138.789 249.9C138.789 251.937 138.509 254.61 137.919 257.952L141.858 258.648C142.468 255.19 142.789 252.263 142.789 249.9H138.789ZM139.946 256.301C132.922 256.1 124.802 256 115.589 256V260C124.775 260 132.855 260.1 139.832 260.299L139.946 256.301ZM115.589 256C106.375 256 98.3549 256.1 91.5299 256.301L91.6475 260.299C98.4224 260.1 106.402 260 115.589 260V256ZM93.5498 257.908C92.9665 254.991 92.6887 252.528 92.6887 250.5H88.6887C88.6887 252.872 89.0109 255.609 89.6275 258.692L93.5498 257.908ZM92.6887 250.5C92.6887 248.201 92.8809 245.28 93.2764 241.721L89.3009 241.279C88.8964 244.92 88.6887 247.999 88.6887 250.5H92.6887ZM91.4595 243.493L101.959 242.593L101.618 238.607L91.1179 239.507L91.4595 243.493ZM103.783 240.751C104.585 230.119 105.187 218.791 105.588 206.767L101.59 206.633C101.191 218.609 100.592 229.881 99.7943 240.449L103.783 240.751ZM103.653 204.701C97.4142 204.5 83.0789 204.4 60.6887 204.4V208.4C83.0984 208.4 97.3631 208.5 103.524 208.699L103.653 204.701ZM60.6887 204.4C38.4771 204.4 22.0805 204.999 11.5594 206.213L12.0179 210.187C22.2969 209.001 38.5002 208.4 60.6887 208.4V204.4ZM13.686 207.568C13.2045 206.123 12.8887 202.845 12.8887 197.4H8.88867C8.88867 202.755 9.17288 206.677 9.89131 208.832L13.686 207.568ZM12.5639 198.493C15.5784 193.87 20.4896 186.052 27.2899 175.052L23.8875 172.948C17.0877 183.948 12.1989 191.73 9.21345 196.307L12.5639 198.493ZM27.2847 175.06C34.2848 163.86 39.1809 156.066 41.976 151.674L38.6014 149.526C35.7965 153.934 30.8925 161.74 23.8927 172.94L27.2847 175.06ZM41.976 151.674C44.7851 147.26 48.892 140.648 54.2933 131.846L50.884 129.754C45.4854 138.552 41.3923 145.14 38.6013 149.526L41.976 151.674ZM54.3037 131.829C59.7071 122.823 64.0152 115.51 67.2252 109.892L63.7522 107.908C60.5622 113.49 56.2703 120.777 50.8737 129.771L54.3037 131.829ZM67.2445 109.858C75.6613 94.4269 82.8823 80.1864 88.9046 67.1381L85.2728 65.4619C79.2951 78.4136 72.1161 92.5731 63.7329 107.942L67.2445 109.858ZM43.8346 188.599C51.2573 188.8 59.876 188.9 69.6887 188.9V184.9C59.9013 184.9 51.32 184.8 43.9427 184.601L43.8346 188.599ZM69.6887 188.9C79.5144 188.9 91.0355 188.699 104.249 188.299L104.128 184.301C90.9419 184.701 79.4629 184.9 69.6887 184.9V188.9ZM106.189 186.3V165.9H102.189V186.3H106.189ZM106.189 165.9C106.189 126.507 105.39 99.2073 103.777 84.0879L99.8 84.5121C101.387 99.3927 102.189 126.493 102.189 165.9H106.189ZM100.162 83.136C85.4658 103.671 66.108 137.889 42.1013 185.703L45.676 187.497C69.6694 139.711 88.9115 105.729 103.415 85.464L100.162 83.136Z" fill="url(#paint1_radial_356_289)" mask="url(#path-3-outside-2_356_289)"/>
<defs>
<filter id="filter0_f_356_289" x="0.888672" y="53.3" width="155.3" height="215" filterUnits="userSpaceOnUse" color-interpolation-filters="sRGB">
<feFlood flood-opacity="0" result="BackgroundImageFix"/>
<feBlend mode="normal" in="SourceGraphic" in2="BackgroundImageFix" result="shape"/>
<feGaussianBlur stdDeviation="5" result="effect1_foregroundBlur_356_289"/>
</filter>
<radialGradient id="paint0_radial_356_289" cx="0" cy="0" r="1" gradientUnits="userSpaceOnUse" gradientTransform="translate(88 92) rotate(90) scale(318 130.196)">
<stop stop-color="#020EF2"/>
<stop offset="0.5" stop-color="#020EF2" stop-opacity="0"/>
</radialGradient>
<radialGradient id="paint1_radial_356_289" cx="0" cy="0" r="1" gradientUnits="userSpaceOnUse" gradientTransform="translate(88 152) rotate(90) scale(174.5 71.4438)">
<stop offset="0.41" stop-color="#020EF2" stop-opacity="0.87"/>
<stop offset="0.77" stop-color="#020EF2" stop-opacity="0"/>
<stop offset="0.92" stop-color="#020EF2" stop-opacity="0"/>
</radialGradient>
</defs>
</svg>
