<svg width="142" height="276" viewBox="0 0 142 276" fill="none" xmlns="http://www.w3.org/2000/svg">
<g filter="url(#filter0_f_356_269)">
<mask id="path-1-outside-1_356_269" maskUnits="userSpaceOnUse" x="11" y="59" width="119" height="204" fill="black">
<rect fill="white" x="11" y="59" width="119" height="204"/>
<path d="M78.35 63.6C80.15 63.4 82.35 63.3 84.95 63.3C87.55 63.3 89.95 63.4 92.15 63.6C94.35 63.8 96.25 63.9 97.85 63.9C95.05 85.5 93.65 115.4 93.65 153.6C93.65 191.6 94.45 220.1 96.05 239.1L125.15 241.5C125.55 244.7 125.75 247.5 125.75 249.9C125.75 252.1 125.45 254.9 124.85 258.3C113.05 258.1 98.95 258 82.55 258C66.15 258 52.15 258.1 40.55 258.3C39.95 255.3 39.65 252.7 39.65 250.5C39.65 248.1 39.85 245.1 40.25 241.5L68.75 239.1C70.35 217.7 71.15 191.2 71.15 159.6C71.15 127.8 70.55 105.3 69.35 92.1C46.95 106.9 33.85 116.2 30.05 120C22.25 111.4 17.65 103.4 16.25 96C29.05 90.8 49.75 80 78.35 63.6Z"/>
</mask>
<path d="M78.35 63.6L77.9083 59.6245L77.0817 59.7163L76.3602 60.13L78.35 63.6ZM92.15 63.6L91.7878 67.5836H91.7879L92.15 63.6ZM97.85 63.9L101.817 64.4142L102.402 59.9H97.85V63.9ZM96.05 239.1L92.0641 239.436L92.3481 242.808L95.7212 243.086L96.05 239.1ZM125.15 241.5L129.119 241.004L128.716 237.781L125.479 237.514L125.15 241.5ZM124.85 258.3L124.782 262.299L128.196 262.357L128.789 258.995L124.85 258.3ZM40.55 258.3L36.6277 259.084L37.2822 262.357L40.619 262.299L40.55 258.3ZM40.25 241.5L39.9143 237.514L36.6376 237.79L36.2745 241.058L40.25 241.5ZM68.75 239.1L69.0857 243.086L72.4846 242.8L72.7389 239.398L68.75 239.1ZM69.35 92.1L73.3336 91.7378L72.7278 85.074L67.145 88.7626L69.35 92.1ZM30.05 120L27.0871 122.687L29.9087 125.798L32.8784 122.828L30.05 120ZM16.25 96L14.7445 92.2941L11.7111 93.5265L12.3197 96.7436L16.25 96ZM78.7918 67.5755C80.3972 67.3971 82.4399 67.3 84.95 67.3V59.3C82.2601 59.3 79.9028 59.4028 77.9083 59.6245L78.7918 67.5755ZM84.95 67.3C87.4496 67.3 89.7271 67.3962 91.7878 67.5836L92.5122 59.6164C90.1729 59.4038 87.6504 59.3 84.95 59.3V67.3ZM91.7879 67.5836C94.0666 67.7907 96.0935 67.9 97.85 67.9V59.9C96.4065 59.9 94.6334 59.8093 92.5121 59.6164L91.7879 67.5836ZM93.8832 63.3858C91.0506 85.2371 89.65 115.335 89.65 153.6H97.65C97.65 115.465 99.0494 85.7629 101.817 64.4142L93.8832 63.3858ZM89.65 153.6C89.65 191.625 90.4495 220.262 92.0641 239.436L100.036 238.764C98.4505 219.938 97.65 191.575 97.65 153.6H89.65ZM95.7212 243.086L124.821 245.486L125.479 237.514L96.3788 235.114L95.7212 243.086ZM121.181 241.996C121.567 245.084 121.75 247.711 121.75 249.9H129.75C129.75 247.289 129.533 244.316 129.119 241.004L121.181 241.996ZM121.75 249.9C121.75 251.775 121.49 254.321 120.911 257.605L128.789 258.995C129.41 255.479 129.75 252.425 129.75 249.9H121.75ZM124.918 254.301C113.088 254.1 98.9646 254 82.55 254V262C98.9354 262 113.012 262.1 124.782 262.299L124.918 254.301ZM82.55 254C66.1356 254 52.1112 254.1 40.481 254.301L40.619 262.299C52.1888 262.1 66.1644 262 82.55 262V254ZM44.4723 257.516C43.9056 254.682 43.65 252.357 43.65 250.5H35.65C35.65 253.043 35.9944 255.918 36.6277 259.084L44.4723 257.516ZM43.65 250.5C43.65 248.302 43.8345 245.461 44.2255 241.942L36.2745 241.058C35.8655 244.739 35.65 247.898 35.65 250.5H43.65ZM40.5857 245.486L69.0857 243.086L68.4143 235.114L39.9143 237.514L40.5857 245.486ZM72.7389 239.398C74.3489 217.865 75.15 191.258 75.15 159.6H67.15C67.15 191.142 66.3512 217.535 64.7611 238.802L72.7389 239.398ZM75.15 159.6C75.15 127.799 74.5517 105.137 73.3336 91.7378L65.3664 92.4621C66.5483 105.463 67.15 127.801 67.15 159.6H75.15ZM67.145 88.7626C55.9288 96.1733 47.0119 102.226 40.4095 106.913C33.9054 111.531 29.3993 114.994 27.2216 117.172L32.8784 122.828C34.5007 121.206 38.4446 118.119 45.0405 113.437C51.5381 108.824 60.3712 102.827 71.555 95.4373L67.145 88.7626ZM33.0129 117.313C25.4613 108.987 21.388 101.64 20.1803 95.2564L12.3197 96.7436C13.912 105.16 19.0387 113.813 27.0871 122.687L33.0129 117.313ZM17.7555 99.7059C30.8308 94.394 51.7381 83.4709 80.3398 67.07L76.3602 60.13C47.7619 76.5291 27.2692 87.206 14.7445 92.2941L17.7555 99.7059Z" fill="url(#paint0_radial_356_269)" mask="url(#path-1-outside-1_356_269)"/>
</g>
<mask id="path-3-outside-2_356_269" maskUnits="userSpaceOnUse" x="13" y="61" width="115" height="200" fill="black">
<rect fill="white" x="13" y="61" width="115" height="200"/>
<path d="M78.35 63.6C80.15 63.4 82.35 63.3 84.95 63.3C87.55 63.3 89.95 63.4 92.15 63.6C94.35 63.8 96.25 63.9 97.85 63.9C95.05 85.5 93.65 115.4 93.65 153.6C93.65 191.6 94.45 220.1 96.05 239.1L125.15 241.5C125.55 244.7 125.75 247.5 125.75 249.9C125.75 252.1 125.45 254.9 124.85 258.3C113.05 258.1 98.95 258 82.55 258C66.15 258 52.15 258.1 40.55 258.3C39.95 255.3 39.65 252.7 39.65 250.5C39.65 248.1 39.85 245.1 40.25 241.5L68.75 239.1C70.35 217.7 71.15 191.2 71.15 159.6C71.15 127.8 70.55 105.3 69.35 92.1C46.95 106.9 33.85 116.2 30.05 120C22.25 111.4 17.65 103.4 16.25 96C29.05 90.8 49.75 80 78.35 63.6Z"/>
</mask>
<path d="M78.35 63.6L78.1291 61.6122L77.7158 61.6582L77.3551 61.865L78.35 63.6ZM92.15 63.6L91.9689 65.5918L91.9689 65.5918L92.15 63.6ZM97.85 63.9L99.8334 64.1571L100.126 61.9H97.85V63.9ZM96.05 239.1L94.0571 239.268L94.1991 240.954L95.8856 241.093L96.05 239.1ZM125.15 241.5L127.135 241.252L126.933 239.64L125.314 239.507L125.15 241.5ZM124.85 258.3L124.816 260.3L126.523 260.329L126.82 258.648L124.85 258.3ZM40.55 258.3L38.5888 258.692L38.9161 260.328L40.5845 260.3L40.55 258.3ZM40.25 241.5L40.0822 239.507L38.4438 239.645L38.2622 241.279L40.25 241.5ZM68.75 239.1L68.9178 241.093L70.6173 240.95L70.7444 239.249L68.75 239.1ZM69.35 92.1L71.3418 91.9189L71.0389 88.587L68.2475 90.4313L69.35 92.1ZM30.05 120L28.5686 121.344L29.9793 122.899L31.4642 121.414L30.05 120ZM16.25 96L15.4972 94.1471L13.9805 94.7632L14.2849 96.3718L16.25 96ZM78.5709 65.5878C80.2736 65.3986 82.395 65.3 84.95 65.3V61.3C82.305 61.3 80.0264 61.4014 78.1291 61.6122L78.5709 65.5878ZM84.95 65.3C87.4998 65.3 89.8385 65.3981 91.9689 65.5918L92.3311 61.6082C90.0615 61.4019 87.6002 61.3 84.95 61.3V65.3ZM91.9689 65.5918C94.2083 65.7954 96.1717 65.9 97.85 65.9V61.9C96.3283 61.9 94.4917 61.8046 92.3311 61.6082L91.9689 65.5918ZM95.8666 63.6429C93.0503 85.3685 91.65 115.368 91.65 153.6H95.65C95.65 115.432 97.0497 85.6314 99.8334 64.1571L95.8666 63.6429ZM91.65 153.6C91.65 191.613 92.4498 220.181 94.0571 239.268L98.0429 238.932C96.4503 220.019 95.65 191.587 95.65 153.6H91.65ZM95.8856 241.093L124.986 243.493L125.314 239.507L96.2144 237.107L95.8856 241.093ZM123.165 241.748C123.558 244.892 123.75 247.606 123.75 249.9H127.75C127.75 247.394 127.542 244.508 127.135 241.252L123.165 241.748ZM123.75 249.9C123.75 251.937 123.47 254.61 122.88 257.952L126.82 258.648C127.43 255.19 127.75 252.263 127.75 249.9H123.75ZM124.884 256.3C113.069 256.1 98.9573 256 82.55 256V260C98.9427 260 113.031 260.1 124.816 260.3L124.884 256.3ZM82.55 256C66.1428 256 52.1306 256.1 40.5155 256.3L40.5845 260.3C52.1694 260.1 66.1572 260 82.55 260V256ZM42.5112 257.908C41.9278 254.991 41.65 252.528 41.65 250.5H37.65C37.65 252.872 37.9722 255.609 38.5888 258.692L42.5112 257.908ZM41.65 250.5C41.65 248.201 41.8423 245.28 42.2378 241.721L38.2622 241.279C37.8577 244.92 37.65 247.999 37.65 250.5H41.65ZM40.4178 243.493L68.9178 241.093L68.5822 237.107L40.0822 239.507L40.4178 243.493ZM70.7444 239.249C72.3494 217.782 73.15 191.229 73.15 159.6H69.15C69.15 191.171 68.3506 217.618 66.7556 238.951L70.7444 239.249ZM73.15 159.6C73.15 127.8 72.5508 105.219 71.3418 91.9189L67.3582 92.2811C68.5492 105.381 69.15 127.8 69.15 159.6H73.15ZM68.2475 90.4313C57.0394 97.8367 48.1434 103.876 41.5672 108.544C35.0402 113.178 30.6747 116.547 28.6358 118.586L31.4642 121.414C33.2253 119.653 37.3098 116.472 43.8828 111.806C50.4066 107.174 59.2606 101.163 70.4525 93.7687L68.2475 90.4313ZM31.5314 118.656C23.8557 110.193 19.519 102.52 18.2151 95.6282L14.2849 96.3718C15.781 104.28 20.6443 112.607 28.5686 121.344L31.5314 118.656ZM17.0028 97.8529C29.9404 92.597 50.7441 81.7355 79.3449 65.335L77.3551 61.865C48.7559 78.2645 28.1596 89.003 15.4972 94.1471L17.0028 97.8529Z" fill="url(#paint1_radial_356_269)" mask="url(#path-3-outside-2_356_269)"/>
<defs>
<filter id="filter0_f_356_269" x="0.55" y="47.6" width="140.9" height="226.4" filterUnits="userSpaceOnUse" color-interpolation-filters="sRGB">
<feFlood flood-opacity="0" result="BackgroundImageFix"/>
<feBlend mode="normal" in="SourceGraphic" in2="BackgroundImageFix" result="shape"/>
<feGaussianBlur stdDeviation="7.85" result="effect1_foregroundBlur_356_269"/>
</filter>
<radialGradient id="paint0_radial_356_269" cx="0" cy="0" r="1" gradientUnits="userSpaceOnUse" gradientTransform="translate(73 92) rotate(90) scale(318 130.196)">
<stop stop-color="#4EA8FD"/>
<stop offset="0.5" stop-color="#4EA8FD" stop-opacity="0"/>
</radialGradient>
<radialGradient id="paint1_radial_356_269" cx="0" cy="0" r="1" gradientUnits="userSpaceOnUse" gradientTransform="translate(73 152) rotate(90) scale(165 67.5543)">
<stop stop-color="#4EA8FD" stop-opacity="0.79"/>
<stop offset="0.769697" stop-color="#4EA8FD" stop-opacity="0"/>
</radialGradient>
</defs>
</svg>
